<svg width="119" height="20" viewBox="0 0 119 20" fill="none" xmlns="http://www.w3.org/2000/svg">
<g clip-path="url(#clip0)">
<path d="M71.536 0L50.592 20H56.44L71.536 5.6L86.7 20H92.548L71.536 0Z" fill="#E82C2B"/>
<path d="M23.188 4.7998H0V19.9998H3.876V8.46647H19.312L23.188 4.7998Z" fill="#262424"/>
<path d="M116.076 16.4664H99.756C98.94 16.4664 97.648 15.9998 97.648 14.7331V10.1331C97.648 8.79977 98.804 8.53311 99.756 8.53311H116.076L119.068 4.93311H98.668C95.88 4.93311 93.976 6.79977 93.84 9.59977V14.6664V15.8664C93.84 18.0664 96.016 19.9998 98.668 19.9998H119.068L116.076 16.4664Z" fill="#262424"/>
<path d="M26.5881 14.0002L31.8921 8.93356L37.1961 14.0002H26.5881ZM48.6201 20.0002L31.9601 4.06689L15.2321 20.0002H20.3321L23.1881 17.3336H40.6641L43.5201 20.0002H48.6201Z" fill="#262424"/>
</g>
<defs>
<clipPath id="clip0">
<rect width="119" height="20" fill="white"/>
</clipPath>
</defs>
</svg>
